# xmcd CD database file
#
# Track frame offsets:
#	150
#	20093
#	41431
#	63665
#	85409
#	104011
#	123411
#	144174
#	162684
#	178596
#	201107
#	228590
#	246397
#
# Disc length: 3487 seconds
#
# Revision: 0
# Processed by: cddbd v1.5.2PL0 Copyright (c) Steve Scherf et al.
# Submitted via: CDex 1.70beta2
#
DISCID=bf0d9d0d
DTITLE=Frankfurter, Aryeh - Sounds of the Season
DYEAR=2007
DGENRE=New Age
TTITLE0=Good King Wenceslas
TTITLE1=We Three Kings of Orient Are
TTITLE2=The Sound of Sleat/Christmas Day I'da Morn'
TTITLE3=Baloo Baleerie
TTITLE4=Oh Holy Night
TTITLE5=I Wonder As I Wander
TTITLE6=The Water Is Wide
TTITLE7=Christ Child Lullaby
TTITLE8=Bring a Torch
TTITLE9=Silent Night, Holy Night
TTITLE10=The Little Drummer Boy/Do You Hear What I Hear?
TTITLE11=What Child Is This? (Greensleeves)
TTITLE12=Cold December Flies Away
EXTD=YEAR: 2007
EXTT0=
EXTT1=
EXTT2=
EXTT3=
EXTT4=
EXTT5=
EXTT6=
EXTT7=
EXTT8=
EXTT9=
EXTT10=
EXTT11=
EXTT12=
PLAYORDER=
